<svg width="104" height="106" viewBox="0 0 104 106" fill="none" xmlns="http://www.w3.org/2000/svg">
<path d="M101.337 87.6872H98.1138V38.6298C98.1138 34.186 94.5001 30.5722 90.0581 30.5722H79.3828V18.4333C79.3828 18.0425 79.2279 17.6663 78.9506 17.3909L63.32 1.7603C63.1854 1.62571 63.0247 1.51766 62.8462 1.44281C62.6677 1.36832 62.4745 1.32812 62.2776 1.32812H32.8476C28.3083 1.32812 24.6175 5.01931 24.6175 9.55826V30.5726H13.9422C9.50022 30.5726 5.88647 34.1863 5.88647 38.6301V87.6875H2.6636C1.84976 87.6875 1.18896 88.3483 1.18896 89.1622V94.609C1.18896 100.158 5.70283 104.672 11.2522 104.672H92.7481C98.2974 104.672 102.811 100.158 102.811 94.609V89.1622C102.811 88.348 102.151 87.6872 101.337 87.6872ZM63.7522 6.3623L74.3519 16.962H66.3648C64.9245 16.962 63.7522 15.7898 63.7522 14.3494V6.3623ZM27.5668 9.55826C27.5668 6.64661 29.9363 4.27739 32.8476 4.27739H60.8029V14.3494C60.8029 17.4156 63.2986 19.9113 66.3648 19.9113H76.4335V64.8295C76.4335 67.7411 74.0639 70.1103 71.1526 70.1103H32.848C29.9363 70.1103 27.5671 67.7407 27.5671 64.8295L27.5668 9.55826ZM8.83573 38.6298C8.83573 35.8136 11.126 33.5215 13.9422 33.5215H24.6175V37.9454H14.7361C13.9223 37.9454 13.2615 38.6062 13.2615 39.42V81.7868C13.2615 82.6006 13.9223 83.2614 14.7361 83.2614H65.8696C66.6834 83.2614 67.3442 82.6006 67.3442 81.7868C67.3442 80.973 66.6834 80.3122 65.8696 80.3122H16.2107V40.895H24.6175V64.8295C24.6175 69.3688 28.3087 73.0596 32.8476 73.0596H71.1523C75.6916 73.0596 79.3824 69.3684 79.3824 64.8295V40.895H87.7892V80.3125H78.7345C77.9207 80.3125 77.2599 80.9733 77.2599 81.7872C77.2599 82.601 77.9207 83.2618 78.7345 83.2618H89.2642C90.078 83.2618 90.7388 82.601 90.7388 81.7872V39.4204C90.7388 38.6065 90.078 37.9457 89.2642 37.9457H79.3828V33.5218H90.0581C92.8742 33.5218 95.1645 35.814 95.1645 38.6301V87.6875H65.6915C64.8776 87.6875 64.2168 88.3483 64.2168 89.1622V93.9264H39.7834V89.1622C39.7834 88.3483 39.1226 87.6875 38.3088 87.6875H8.83573V38.6298ZM99.862 94.6086C99.862 98.5303 96.6698 101.723 92.7481 101.723H11.2522C7.3305 101.723 4.13823 98.5303 4.13823 94.6086V90.6368H36.8342V95.401C36.8342 96.2149 37.495 96.8757 38.3088 96.8757H65.6915C66.5053 96.8757 67.1661 96.2149 67.1661 95.401V90.6368H99.862V94.6086Z" fill="#422E7F" stroke="#422E7F"/>
<path d="M71.4692 82.8311C71.7266 83.1265 72.0957 83.274 72.5028 83.274C72.9081 83.274 73.2772 83.1265 73.5346 82.8311C73.6821 82.6836 73.792 82.5357 73.8657 82.3521C73.9395 82.1666 73.9775 81.983 73.9775 81.7993C73.9775 81.5777 73.9395 81.3922 73.8657 81.2086C73.792 81.0231 73.6821 80.8775 73.5346 80.7296C73.3871 80.6179 73.2392 80.508 73.0556 80.4342C72.6865 80.2867 72.2812 80.2867 71.9482 80.4342C71.7646 80.508 71.581 80.6179 71.4692 80.7296C71.3217 80.8771 71.2118 81.0231 71.1381 81.2086C71.0643 81.3922 71.0264 81.5777 71.0264 81.7993C71.0264 81.983 71.0643 82.1666 71.1381 82.3521C71.2118 82.5361 71.3214 82.6836 71.4692 82.8311Z" fill="#5B45A7"/>
<path d="M45.5 33.1436H66.4384C67.2522 33.1436 67.913 32.4828 67.913 31.669C67.913 30.8551 67.2522 30.1943 66.4384 30.1943H45.5C44.6862 30.1943 44.0254 30.8551 44.0254 31.669C44.0254 32.4828 44.6862 33.1436 45.5 33.1436Z" fill="#5B45A7"/>
<path d="M36.1031 33.1436H38.9623C39.7762 33.1436 40.437 32.4828 40.437 31.669C40.437 30.8551 39.7762 30.1943 38.9623 30.1943H36.1031C35.2892 30.1943 34.6284 30.8551 34.6284 31.669C34.6284 32.4828 35.2892 33.1436 36.1031 33.1436Z" fill="#5B45A7"/>
<path d="M45.5 24.0528H53.9768C54.7907 24.0528 55.4515 23.392 55.4515 22.5781C55.4515 21.7643 54.7907 21.1035 53.9768 21.1035H45.5C44.6862 21.1035 44.0254 21.7643 44.0254 22.5781C44.0254 23.392 44.6862 24.0528 45.5 24.0528Z" fill="#5B45A7"/>
<path d="M36.1031 24.0528H38.9623C39.7762 24.0528 40.437 23.392 40.437 22.5781C40.437 21.7643 39.7762 21.1035 38.9623 21.1035H36.1031C35.2892 21.1035 34.6284 21.7643 34.6284 22.5781C34.6284 23.392 35.2892 24.0528 36.1031 24.0528Z" fill="#5B45A7"/>
<path d="M45.5 41.5522H66.4384C67.2522 41.5522 67.913 40.8914 67.913 40.0775C67.913 39.2637 67.2522 38.6029 66.4384 38.6029H45.5C44.6862 38.6029 44.0254 39.2637 44.0254 40.0775C44.0254 40.8914 44.6862 41.5522 45.5 41.5522Z" fill="#5B45A7"/>
<path d="M36.1031 41.5522H38.9623C39.7762 41.5522 40.437 40.8914 40.437 40.0775C40.437 39.2637 39.7762 38.6029 38.9623 38.6029H36.1031C35.2892 38.6029 34.6284 39.2637 34.6284 40.0775C34.6284 40.8914 35.2892 41.5522 36.1031 41.5522Z" fill="#5B45A7"/>
<path d="M45.5 49.9627H66.4384C67.2522 49.9627 67.913 49.3019 67.913 48.4881C67.913 47.6742 67.2522 47.0134 66.4384 47.0134H45.5C44.6862 47.0134 44.0254 47.6742 44.0254 48.4881C44.0254 49.3019 44.6862 49.9627 45.5 49.9627Z" fill="#5B45A7"/>
<path d="M36.1031 49.9627H38.9623C39.7762 49.9627 40.437 49.3019 40.437 48.4881C40.437 47.6742 39.7762 47.0134 38.9623 47.0134H36.1031C35.2892 47.0134 34.6284 47.6742 34.6284 48.4881C34.6284 49.3019 35.2892 49.9627 36.1031 49.9627Z" fill="#5B45A7"/>
<path d="M45.5 58.3709H66.4384C67.2522 58.3709 67.913 57.7101 67.913 56.8963C67.913 56.0824 67.2522 55.4216 66.4384 55.4216H45.5C44.6862 55.4216 44.0254 56.0824 44.0254 56.8963C44.0254 57.7101 44.6862 58.3709 45.5 58.3709Z" fill="#5B45A7"/>
<path d="M36.1031 58.3709H38.9623C39.7762 58.3709 40.437 57.7101 40.437 56.8963C40.437 56.0824 39.7762 55.4216 38.9623 55.4216H36.1031C35.2892 55.4216 34.6284 56.0824 34.6284 56.8963C34.6284 57.7101 35.2892 58.3709 36.1031 58.3709Z" fill="#5B45A7"/>
</svg>
