<svg width="144" height="90" viewBox="0 0 144 90" fill="none" xmlns="http://www.w3.org/2000/svg">
<path fill-rule="evenodd" clip-rule="evenodd" d="M112.383 6.55682C112.302 6.43128 112.22 6.30714 112.135 6.18442C110.912 4.28419 109.23 2.72185 107.245 1.64115C105.253 0.55695 103.02 -0.00747955 100.753 7.48453e-05H100.411L100.331 3.82146e-05H87.4201L87.4065 7.48453e-05H30.2461C29.5756 7.48453e-05 28.9325 0.266449 28.4583 0.740602C27.9842 1.21475 27.7178 1.85785 27.7178 2.5284C27.7178 3.19895 27.9842 3.84204 28.4583 4.31619C28.9325 4.79034 29.5756 5.05672 30.2461 5.05672H84.8918V36.0034C84.8918 36.6739 85.1582 37.317 85.6323 37.7912C86.1065 38.2653 86.7496 38.5317 87.4201 38.5317H127.645L134.75 43.3355C135.792 44.0548 136.644 45.0168 137.231 46.1385C137.818 47.2603 138.124 48.5081 138.121 49.7743V69.3604H130.677C130.258 67.079 129.378 64.8957 128.077 62.9492C126.199 60.1385 123.53 57.9478 120.407 56.6542C117.284 55.3606 113.847 55.0222 110.532 55.6816C107.216 56.3411 104.171 57.9689 101.781 60.3592C99.3904 62.7495 97.7626 65.7949 97.1031 69.1103C97.0525 69.3647 97.0078 69.6198 96.9689 69.8754H74.1387C73.7635 67.4079 72.8506 65.0417 71.4525 62.9492C69.5744 60.1385 66.9051 57.9478 63.782 56.6542C60.659 55.3606 57.2225 55.0222 53.907 55.6816C50.5916 56.3411 47.5462 57.9689 45.1559 60.3592C42.7656 62.7495 41.1378 65.7949 40.4784 69.1103C40.4618 69.1936 40.4459 69.2769 40.4306 69.3602H27.1542C26.4837 69.3602 25.8406 69.6266 25.3664 70.1008C24.8923 70.5749 24.6259 71.218 24.6259 71.8886C24.6259 72.5591 24.8923 73.2022 25.3664 73.6764C25.8406 74.1505 26.4837 74.4169 27.1542 74.4169H40.2641C40.4456 75.9789 40.8427 77.5168 41.451 78.9853C42.7446 82.1084 44.9352 84.7777 47.7459 86.6557C50.5566 88.5338 53.8611 89.5361 57.2414 89.5361C61.7744 89.5361 66.1216 87.7355 69.3269 84.5302C71.9265 81.9306 73.6021 78.5799 74.1426 74.9882H96.965C97.1705 76.3536 97.5418 77.6962 98.0757 78.9853C99.3694 82.1084 101.56 84.7777 104.371 86.6557C107.181 88.5338 110.486 89.5361 113.866 89.5361C118.398 89.5317 122.742 87.7295 125.947 84.5252C128.683 81.7894 130.396 78.2221 130.842 74.4171H140.599C140.935 74.4238 141.269 74.3634 141.582 74.2393C141.895 74.1153 142.179 73.9301 142.42 73.6946C142.66 73.4592 142.85 73.1782 142.981 72.8681C143.111 72.558 143.178 72.2251 143.178 71.8887V49.7743C143.171 47.6767 142.652 45.6124 141.665 43.7615C140.678 41.9106 139.253 40.3293 137.514 39.1554L130.272 34.2038L112.383 6.55682ZM89.9484 33.475V5.05668L100.387 5.05672C101.92 5.06234 103.429 5.44908 104.777 6.18255C106.035 6.86757 107.116 7.83468 107.936 9.00619L123.774 33.475H89.9484ZM45.4379 74.7926C45.2636 73.9164 45.1883 73.0281 45.2104 72.1441C45.2189 72.0595 45.2233 71.9743 45.2233 71.8886C45.2233 71.8677 45.223 71.8468 45.2225 71.826C45.2927 70.4626 45.5947 69.1138 46.1227 67.8392C47.0336 65.6401 48.5761 63.7605 50.5552 62.4381C52.5344 61.1157 54.8612 60.4099 57.2414 60.4099C60.4319 60.4143 63.4904 61.6837 65.7464 63.9397C68.0024 66.1957 69.2718 69.2542 69.2762 72.4447C69.2762 74.825 68.5704 77.1518 67.248 79.1309C65.9256 81.11 64.046 82.6525 61.8469 83.5634C59.6479 84.4743 57.2281 84.7126 54.8935 84.2483C52.559 83.7839 50.4146 82.6377 48.7315 80.9546C47.0484 79.2715 45.9022 77.1271 45.4379 74.7926ZM107.18 62.4381C109.159 61.1157 111.486 60.4099 113.866 60.4099C117.055 60.4188 120.111 61.6896 122.366 63.9446C124.621 66.1997 125.892 69.2556 125.901 72.4447C125.901 74.825 125.195 77.1518 123.873 79.1309C122.55 81.11 120.671 82.6525 118.472 83.5634C116.273 84.4743 113.853 84.7126 111.518 84.2483C109.184 83.7839 107.039 82.6377 105.356 80.9546C103.673 79.2715 102.527 77.1271 102.063 74.7926C101.598 72.458 101.837 70.0382 102.747 67.8392C103.658 65.6401 105.201 63.7605 107.18 62.4381ZM19.4005 23.5133H45.8299C46.5005 23.5133 47.1435 23.2469 47.6177 22.7727C48.0918 22.2986 48.3582 21.6555 48.3582 20.9849C48.3582 20.3144 48.0918 19.6713 47.6177 19.1972C47.1435 18.723 46.5005 18.4566 45.8299 18.4566H19.4005C18.7299 18.4566 18.0869 18.723 17.6127 19.1972C17.1386 19.6713 16.8722 20.3144 16.8722 20.9849C16.8722 21.6555 17.1386 22.2986 17.6127 22.7727C18.0869 23.2469 18.7299 23.5133 19.4005 23.5133ZM33.9301 41.8517H2.52832C1.85777 41.8517 1.21468 41.5853 0.740529 41.1112C0.266376 40.637 0 39.9939 0 39.3234C0 38.6528 0.266376 38.0098 0.740529 37.5356C1.21468 37.0614 1.85777 36.7951 2.52832 36.7951H33.9301C34.6006 36.7951 35.2437 37.0614 35.7179 37.5356C36.192 38.0098 36.4584 38.6528 36.4584 39.3234C36.4584 39.9939 36.192 40.637 35.7179 41.1112C35.2437 41.5853 34.6006 41.8517 33.9301 41.8517ZM12.1698 57.1902H31.0311C31.7016 57.1902 32.3447 56.9238 32.8189 56.4497C33.293 55.9755 33.5594 55.3324 33.5594 54.6619C33.5594 53.9913 33.293 53.3483 32.8189 52.8741C32.3447 52.3999 31.7016 52.1336 31.0311 52.1336H12.1698C11.4993 52.1336 10.8562 52.3999 10.382 52.8741C9.90786 53.3483 9.64148 53.9913 9.64148 54.6619C9.64148 55.3324 9.90786 55.9755 10.382 56.4497C10.8562 56.9238 11.4993 57.1902 12.1698 57.1902Z" fill="#422E7F"/>
</svg>
