<svg width="73" height="102" viewBox="0 0 73 102" fill="none" xmlns="http://www.w3.org/2000/svg">
<path fill-rule="evenodd" clip-rule="evenodd" d="M39.782 34.8797C40.173 35.2027 40.6532 35.36 41.125 35.36C41.7412 35.36 42.349 35.0965 42.7697 34.5822C45.8637 30.7955 47.5 26.1842 47.5 21.25C47.5 9.53275 37.9672 0 26.25 0C14.5327 0 4.99998 9.53275 4.99998 21.25C4.99998 26.1842 6.63623 30.7955 9.73448 34.5822C10.4782 35.4917 11.817 35.6278 12.7222 34.8797C13.6317 34.136 13.7635 32.8015 13.0197 31.892C10.5547 28.8745 9.24998 25.194 9.24998 21.25C9.24998 11.8745 16.8745 4.25 26.25 4.25C35.6255 4.25 43.25 11.8745 43.25 21.25C43.25 25.194 41.9452 28.8745 39.4845 31.892C38.7407 32.8015 38.8725 34.136 39.782 34.8797ZM19.875 72.25C18.702 72.25 17.75 71.298 17.75 70.125V59.5H15.8204C9.86192 59.5 5.00842 64.1792 5.00417 69.921C4.99567 78.6675 7.53292 85.6418 12.5394 90.661C17.7627 95.8885 24.6094 97.75 29.2802 97.75H53.8749C62.0774 97.75 68.7499 91.0775 68.7499 82.875V55.25C68.7499 52.904 66.8459 51 64.4999 51C62.1613 51 60.262 52.892 60.25 55.2277V65.875C60.25 67.048 59.298 68 58.125 68C56.952 68 56 67.048 56 65.875V55.2657L55.9999 55.25L56 55.2185V51C56 48.654 54.096 46.75 51.75 46.75C49.4059 46.75 47.5031 48.6509 47.5 50.9942L47.5 51L47.5 65.875C47.5 67.048 46.548 68 45.375 68C44.202 68 43.25 67.048 43.25 65.875V51.0041L43.25 51L43.25 50.9919V46.75C43.25 44.404 41.346 42.5 39 42.5C36.654 42.5 34.75 44.404 34.75 46.75V65.875C34.75 67.048 33.798 68 32.625 68C31.452 68 30.5 67.048 30.5 65.875V46.7529L30.5 46.75L30.5 46.7443V21.25C30.5 18.904 28.596 17 26.25 17C23.904 17 22 18.904 22 21.25V70.125C22 71.298 21.048 72.25 19.875 72.25ZM15.8204 55.25H17.75V21.25C17.75 16.5623 21.5622 12.75 26.25 12.75C30.9377 12.75 34.75 16.5623 34.75 21.25V39.3903C36.0009 38.6653 37.4527 38.25 39 38.25C42.7029 38.25 45.8595 40.6287 47.0224 43.9386C48.3749 43.0303 50.0015 42.5 51.75 42.5C55.4529 42.5 58.6095 44.8787 59.7724 48.1886C61.1249 47.2803 62.7515 46.75 64.4999 46.75C69.1877 46.75 72.9999 50.5622 72.9999 55.25V82.875C72.9999 93.4193 64.4192 102 53.8749 102H29.2802C22.1274 102 14.7494 98.8848 9.53467 93.6657C3.78017 87.907 0.741419 79.6917 0.754169 69.9167C0.758419 61.8333 7.52017 55.25 15.8204 55.25Z" fill="#422E7F"/>
</svg>
