<svg width="31" height="30" viewBox="0 0 31 30" fill="none" xmlns="http://www.w3.org/2000/svg">
<path d="M15.7725 30C15.2355 30.0008 14.7037 29.8955 14.2075 29.6903C13.7113 29.4851 13.2605 29.1839 12.881 28.8041L11.3585 27.2802C11.1737 27.0943 10.9538 26.9469 10.7117 26.8465C10.4695 26.7462 10.2098 26.6948 9.94769 26.6955H8.16424C7.08016 26.6944 6.0408 26.2632 5.27424 25.4967C4.50768 24.7301 4.07654 23.6907 4.07543 22.6066V20.8246C4.07624 20.5626 4.02511 20.3029 3.92499 20.0608C3.82486 19.8186 3.67774 19.5987 3.49211 19.4137L1.96823 17.8913C1.20264 17.1237 0.772705 16.0839 0.772705 14.9998C0.772705 13.9157 1.20264 12.8759 1.96823 12.1083L3.49211 10.5858C3.67799 10.401 3.82537 10.1811 3.92574 9.93895C4.0261 9.69678 4.07745 9.43712 4.07683 9.17498V7.39153C4.07793 6.30746 4.50907 5.26809 5.27563 4.50153C6.04219 3.73497 7.08156 3.30383 8.16564 3.30273H9.94769C10.2097 3.30354 10.4693 3.2524 10.7115 3.15228C10.9537 3.05216 11.1736 2.90503 11.3585 2.71941L12.881 1.19552C13.6486 0.429938 14.6884 0 15.7725 0C16.8566 0 17.8964 0.429938 18.664 1.19552L20.1865 2.71941C20.3713 2.90529 20.5912 3.05267 20.8333 3.15303C21.0755 3.2534 21.3352 3.30475 21.5973 3.30412H23.3807C24.4648 3.30523 25.5042 3.73637 26.2708 4.50293C27.0373 5.26949 27.4685 6.30885 27.4696 7.39293V9.17498C27.4687 9.43702 27.5199 9.69663 27.62 9.93879C27.7201 10.181 27.8673 10.4009 28.0529 10.5858L29.5754 12.1083C30.341 12.8759 30.7709 13.9157 30.7709 14.9998C30.7709 16.0839 30.341 17.1237 29.5754 17.8913L28.0529 19.4137C27.867 19.5986 27.7196 19.8185 27.6193 20.0606C27.5189 20.3028 27.4675 20.5625 27.4682 20.8246V22.608C27.4671 23.6921 27.0359 24.7315 26.2694 25.498C25.5028 26.2646 24.4634 26.6957 23.3794 26.6969H21.5973C21.3352 26.6962 21.0755 26.7476 20.8333 26.8479C20.5912 26.9483 20.3713 27.0957 20.1865 27.2816L18.664 28.8041C18.2844 29.1839 17.8337 29.4851 17.3375 29.6903C16.8413 29.8955 16.3095 30.0008 15.7725 30ZM8.16424 5.39597C7.6351 5.39634 7.12773 5.60671 6.75357 5.98087C6.37941 6.35503 6.16905 6.86239 6.16868 7.39153V9.17498C6.17061 9.71277 6.06564 10.2456 5.85985 10.7424C5.65406 11.2393 5.35156 11.6903 4.96994 12.0692L3.44885 13.5903C3.07492 13.9652 2.86493 14.4731 2.86493 15.0026C2.86493 15.5321 3.07492 16.0399 3.44885 16.4148L4.96994 17.9359C5.35123 18.3145 5.65353 18.7651 5.85931 19.2614C6.06509 19.7578 6.17024 20.2901 6.16868 20.8274V22.6108C6.16905 23.14 6.37941 23.6473 6.75357 24.0215C7.12773 24.3957 7.6351 24.606 8.16424 24.6064H9.94769C10.485 24.6051 11.0172 24.7104 11.5135 24.9162C12.0098 25.122 12.4604 25.4241 12.8392 25.8051L14.3603 27.3262C14.7351 27.7002 15.243 27.9101 15.7725 27.9101C16.302 27.9101 16.8099 27.7002 17.1847 27.3262L18.7058 25.8051C19.0846 25.4241 19.5352 25.122 20.0315 24.9162C20.5278 24.7104 21.06 24.6051 21.5973 24.6064H23.3807C23.9099 24.606 24.4173 24.3957 24.7914 24.0215C25.1656 23.6473 25.3759 23.14 25.3763 22.6108V20.8246C25.3747 20.2873 25.4799 19.755 25.6857 19.2586C25.8915 18.7623 26.1938 18.3117 26.575 17.9331L28.0961 16.412C28.4701 16.0372 28.6801 15.5293 28.6801 14.9998C28.6801 14.4703 28.4701 13.9624 28.0961 13.5875L26.575 12.0692C26.194 11.6905 25.8919 11.2399 25.6861 10.7436C25.4803 10.2472 25.3751 9.71505 25.3763 9.17777V7.39153C25.3759 6.86239 25.1656 6.35503 24.7914 5.98087C24.4173 5.60671 23.9099 5.39634 23.3807 5.39597H21.5973C21.0595 5.39791 20.5267 5.29293 20.0298 5.08714C19.533 4.88136 19.082 4.57886 18.703 4.19724L17.1819 2.67615C16.8071 2.30222 16.2992 2.09222 15.7697 2.09222C15.2402 2.09222 14.7323 2.30222 14.3575 2.67615L12.8419 4.19724C12.4633 4.57853 12.0128 4.88083 11.5164 5.08661C11.0201 5.29238 10.4878 5.39754 9.95048 5.39597H8.16424Z" fill="#5B45A7"/>
<path d="M14.3769 18.8374C14.2395 18.8377 14.1033 18.8107 13.9763 18.758C13.8494 18.7053 13.7341 18.6279 13.6373 18.5304L10.8463 15.7394C10.6615 15.541 10.5608 15.2785 10.5656 15.0074C10.5704 14.7362 10.6802 14.4775 10.872 14.2858C11.0637 14.094 11.3224 13.9842 11.5936 13.9794C11.8647 13.9746 12.1272 14.0753 12.3256 14.2601L14.3769 16.3101L19.2193 11.4691C19.4177 11.2843 19.6801 11.1836 19.9513 11.1884C20.2224 11.1932 20.4811 11.303 20.6729 11.4948C20.8647 11.6865 20.9745 11.9452 20.9793 12.2164C20.9841 12.4875 20.8834 12.75 20.6985 12.9484L15.1166 18.5304C15.0197 18.6279 14.9045 18.7053 14.7775 18.758C14.6506 18.8107 14.5144 18.8377 14.3769 18.8374Z" fill="#5B45A7"/>
</svg>
