<svg width="38" height="30" viewBox="0 0 38 30" xmlns="http://www.w3.org/2000/svg"><title>payments-mastercard</title><g fill="none"><path d="M7.476 28.872v-1.86a1.103 1.103 0 0 0-1.166-1.177 1.148 1.148 0 0 0-1.043.527 1.09 1.09 0 0 0-.98-.527.98.98 0 0 0-.869.44v-.366h-.645v2.963h.652v-1.63a.694.694 0 0 1 .726-.787c.428 0 .645.278.645.78v1.65h.651v-1.643a.697.697 0 0 1 .726-.787c.44 0 .651.278.651.78v1.65l.652-.013zm9.638-2.963h-1.06v-.899h-.652v.9h-.59v.588h.602v1.364c0 .688.267 1.097 1.03 1.097.285 0 .565-.079.806-.23l-.186-.551c-.173.103-.37.16-.57.167-.31 0-.429-.198-.429-.496v-1.351h1.055l-.006-.589zm5.503-.074a.875.875 0 0 0-.782.434v-.36h-.639v2.963h.645V27.21c0-.49.211-.763.62-.763a1.05 1.05 0 0 1 .404.075l.199-.62a1.382 1.382 0 0 0-.46-.08l.013.012zm-8.32.31a2.22 2.22 0 0 0-1.21-.31c-.75 0-1.24.36-1.24.948 0 .484.36.781 1.023.874l.31.043c.354.05.522.143.522.31 0 .23-.236.36-.677.36a1.58 1.58 0 0 1-.986-.31l-.31.502a2.14 2.14 0 0 0 1.284.384c.856 0 1.353-.403 1.353-.967s-.391-.793-1.037-.886l-.31-.043c-.279-.038-.502-.093-.502-.292 0-.198.21-.347.564-.347.327.004.648.091.93.254l.286-.52zm17.282-.31a.875.875 0 0 0-.782.434v-.36h-.639v2.963h.645V27.21c0-.49.211-.763.62-.763a1.05 1.05 0 0 1 .404.075l.198-.62a1.382 1.382 0 0 0-.459-.08l.013.012zm-8.314 1.55a1.496 1.496 0 0 0 1.582 1.549c.388.02.768-.106 1.067-.353l-.31-.521c-.223.17-.495.263-.775.266a.952.952 0 0 1 0-1.896c.28.003.552.096.775.266l.31-.52a1.552 1.552 0 0 0-1.067-.354 1.5 1.5 0 0 0-1.582 1.55v.012zm6.043 0v-1.476h-.645v.36a1.126 1.126 0 0 0-.93-.434 1.55 1.55 0 1 0 0 3.099c.361.013.708-.148.93-.434v.36h.645v-1.476zm-2.4 0a.896.896 0 1 1 1.788.106.896.896 0 0 1-1.789-.107zm-7.787-1.55a1.55 1.55 0 1 0 .043 3.099c.447.023.886-.12 1.232-.403l-.31-.477a1.412 1.412 0 0 1-.863.31.822.822 0 0 1-.887-.726h2.203v-.248c0-.93-.577-1.55-1.409-1.55l-.009-.005zm0 .576a.736.736 0 0 1 .75.72h-1.55a.763.763 0 0 1 .788-.72h.012zm16.165.98v-2.672h-.62v1.55a1.126 1.126 0 0 0-.931-.434 1.55 1.55 0 1 0 0 3.099c.362.013.708-.148.93-.434v.36h.62v-1.47zm1.076 1.05a.31.31 0 0 1 .214.084.288.288 0 0 1-.096.477.292.292 0 0 1-.118.025.31.31 0 0 1-.28-.18.291.291 0 0 1 .066-.322.31.31 0 0 1 .223-.084h-.009zm0 .524a.22.22 0 0 0 .161-.068.23.23 0 0 0 0-.31.23.23 0 0 0-.16-.068.233.233 0 0 0-.165.068.23.23 0 0 0 0 .31.23.23 0 0 0 .074.05.23.23 0 0 0 .1.018h-.01zm.019-.369a.124.124 0 0 1 .08.025c.02.016.03.04.028.065a.078.078 0 0 1-.021.056.109.109 0 0 1-.066.028l.09.102h-.07l-.085-.102h-.028v.102h-.059v-.273l.13-.003zm-.069.053v.074h.069a.065.065 0 0 0 .037 0 .031.031 0 0 0 0-.028.031.031 0 0 0 0-.028.065.065 0 0 0-.037 0l-.069-.018zM32.9 27.39a.896.896 0 1 1 1.79.107.896.896 0 0 1-1.79-.107zm-21.785 0v-1.48h-.646v.359a1.126 1.126 0 0 0-.93-.434 1.55 1.55 0 1 0 0 3.099c.362.013.708-.148.93-.434v.36h.646v-1.47zm-2.401 0a.896.896 0 1 1 .9.949.89.89 0 0 1-.907-.949h.007z" fill="#231F20"/><path fill="#FF5F00" d="M14.083 3.332h9.771v17.544h-9.77z"/><path d="M14.704 12.105a11.135 11.135 0 0 1 4.265-8.773A11.175 11.175 0 0 0 3.864 4.535a11.15 11.15 0 0 0 0 15.138 11.175 11.175 0 0 0 15.105 1.203 11.135 11.135 0 0 1-4.265-8.77z" fill="#EB001B"/><path d="M37.038 12.105c0 4.272-2.441 8.169-6.287 10.035a11.176 11.176 0 0 1-11.782-1.264 11.153 11.153 0 0 0 0-17.544 11.176 11.176 0 0 1 11.782-1.265 11.156 11.156 0 0 1 6.287 10.035v.003z" fill="#F79E1B"/></g></svg>