<svg width="70" height="30" viewBox="0 0 70 30" xmlns="http://www.w3.org/2000/svg" xmlns:xlink="http://www.w3.org/1999/xlink"><title>payments-visa</title><defs><path d="M35.712 15.647c-.04-3.134 2.764-4.884 4.876-5.923 2.17-1.068 2.899-1.752 2.89-2.706-.016-1.46-1.73-2.105-3.335-2.13-2.8-.044-4.427.764-5.721 1.375l-1.009-4.768C34.712.89 37.116.363 39.608.34c5.852 0 9.68 2.918 9.701 7.444.023 5.743-7.862 6.061-7.808 8.629.019.778.754 1.609 2.365 1.82.797.107 2.998.188 5.493-.973l.98 4.613c-1.343.494-3.067.967-5.215.967-5.507 0-9.381-2.958-9.412-7.193m24.037 6.796c-1.069 0-1.97-.63-2.371-1.597L49.019.68h5.847l1.164 3.249h7.146l.675-3.25h5.153l-4.497 21.765h-4.758m.818-5.88l1.687-8.172h-4.621l2.934 8.172m-31.945 5.88L24.013.679h5.572l4.607 21.764h-5.57m-8.243 0l-5.8-14.814-2.345 12.596c-.276 1.406-1.363 2.218-2.57 2.218H.183L.05 21.81c1.947-.427 4.158-1.115 5.498-1.852.82-.45 1.054-.843 1.323-1.912L11.314.679h5.889l9.028 21.764h-5.852" id="a"/><linearGradient x1="16.148%" y1="34.401%" x2="85.832%" y2="66.349%" id="c"><stop stop-color="#222357" offset="0%"/><stop stop-color="#254AA5" offset="100%"/></linearGradient></defs><g transform="matrix(1 0 0 -1 .088 26.894)" fill="none" fill-rule="evenodd"><mask id="b" fill="#fff"><use xlink:href="#a"/></mask><g mask="url(#b)"><path fill="url(#c)" fill-rule="nonzero" d="M0 42.543l67.94 25.283 15.456-42.41L15.456.133" transform="translate(-7.17 -22.39)"/></g></g></svg>