<svg width="50" height="30" viewBox="0 0 50 30" xmlns="http://www.w3.org/2000/svg"><title>payments-amex</title><g fill="none"><path d="M50 27.428C50 28.848 48.677 30 47.044 30H2.956C1.323 30 0 28.849 0 27.428V2.571C0 1.151 1.323 0 2.956 0h44.088C48.677 0 50 1.151 50 2.571v24.857z" fill="#006FCF"/><g fill="#FFF"><path d="M9.241 12.199h1.285l-.642-1.65zm6.833 5.539v.766h2.16v.825h-2.16v.884h2.394l1.11-1.237-1.052-1.238zm16.876-7.189l-.7 1.65h1.343zM22.322 20.684v-3.358l-1.518 1.65zm2.862-2.416c-.059-.353-.293-.53-.643-.53h-1.226v1.06H24.6c.35 0 .584-.176.584-.53zm4.087.413c.117-.06.176-.236.176-.412.058-.236-.059-.354-.176-.413-.116-.059-.292-.059-.467-.059h-1.168v.943h1.168c.175 0 .35 0 .467-.059z"/><path d="M37.68 9.017v.707l-.35-.707h-2.744v.707l-.35-.707h-3.738c-.643 0-1.168.118-1.635.353v-.353h-2.628v.353c-.292-.235-.642-.353-1.11-.353h-9.402l-.642 1.473-.643-1.473H11.46v.707l-.292-.707H8.6l-1.168 2.77-1.343 3.005-.025.059h3.04l.021-.06.35-.883h.76l.35.943h3.387v-.708l.292.708h1.694l.292-.708v.708h8.117v-1.533h.117c.117 0 .117 0 .117.177v1.297h4.204v-.354c.35.177.876.354 1.577.354h1.752l.35-.943h.818l.35.943h3.387v-.884l.526.884h2.744V9.017H37.68zm-19.796 4.95h-.934v-3.241l-.059.135v-.002l-1.359 3.108h-.86l-1.402-3.241v3.24h-1.985l-.409-.883H8.89l-.408.884H7.455l1.728-4.125h1.46l1.635 3.948V9.842h1.547l.027.059h.002l.737 1.618.53 1.212.018-.06 1.168-2.83h1.577v4.126zm4.03-3.241h-2.278v.766h2.219v.825h-2.22v.825h2.278v.884h-3.27V9.842h3.27v.884zm4.165 1.52l.005.003a.674.674 0 0 1 .057.07c.112.148.202.368.207.69v.017l.001.01v.005c.002.032.002.065.002.1v.826h-.875v-.472c0-.235 0-.589-.176-.825a.531.531 0 0 0-.172-.118c-.087-.057-.253-.058-.528-.058h-1.052v1.473h-.992V9.842h2.219c.525 0 .876 0 1.168.177.286.173.459.46.465.916-.013.627-.412.971-.699 1.087 0 0 .195.04.37.223zm1.966 1.72h-.993V9.843h.993v4.125zm11.388 0h-1.285l-1.869-3.122v2.592l-.006-.006v.54h-.987v-.003h-.992l-.35-.884h-2.045l-.35.943h-1.11c-.467 0-1.051-.118-1.401-.472-.35-.353-.526-.825-.526-1.59 0-.59.117-1.18.526-1.65.292-.355.817-.472 1.46-.472h.934v.884h-.934c-.35 0-.526.058-.76.236-.175.176-.291.53-.291.942 0 .472.058.766.291 1.002.176.177.41.236.701.236h.409l1.343-3.24h1.46l1.635 3.947V9.901h1.46l1.693 2.887V9.901h.994v4.066z"/><path d="M25.246 11.56a.641.641 0 0 0 .126-.508.332.332 0 0 0-.008-.053c-.001-.005-.001-.01-.003-.014a.33.33 0 0 0-.177-.2c-.117-.06-.293-.06-.468-.06h-1.168v.944h1.168c.175 0 .35 0 .468-.06a.22.22 0 0 0 .048-.034l.014-.015zm17.632 8.3c0-.413-.117-.825-.292-1.12v-2.652h-.002v-.177H39.77c-.364 0-.806.354-.806.354v-.354H36.28c-.409 0-.934.118-1.168.354v-.354h-4.788v.354c-.35-.295-.993-.354-1.285-.354h-3.154v.354c-.292-.295-.993-.354-1.343-.354h-3.504l-.817.884-.76-.884h-5.256v5.953h5.139l.844-.853.732.852h3.271v-1.355h.292c.408 0 .934 0 1.343-.177v1.591h2.628V20.39h.116c.176 0 .176 0 .176.177v1.355h7.942c.526 0 1.05-.118 1.343-.354v.354h2.511c.525 0 1.051-.059 1.402-.295.537-.325.876-.901.927-1.589l.007-.06-.004-.004c.002-.038.004-.076.004-.114zm-18.395-.354h-1.168v1.532h-1.92l-1.117-1.296-.004.004-.054-.063-1.285 1.355h-3.737v-4.125h3.795l1.037 1.146.218.24.03-.03 1.227-1.356H24.6c.6 0 1.273.15 1.528.767.03.122.048.258.048.412 0 1.178-.817 1.414-1.693 1.414zm5.84-.059c.116.176.175.413.175.766v.825h-.993v-.53c0-.236 0-.648-.175-.825-.117-.177-.35-.177-.7-.177h-1.052v1.532h-.993v-4.184h2.22c.466 0 .875 0 1.168.177.291.177.525.472.525.943 0 .648-.409 1.002-.7 1.12.291.117.466.235.525.353zm4.03-1.71h-2.279v.767h2.22v.825h-2.22v.825h2.278v.884h-3.27v-4.184h3.27v.884zm2.452 3.301h-1.87v-.884h1.87c.175 0 .292 0 .409-.118a.452.452 0 0 0 .116-.294.451.451 0 0 0-.116-.295c-.059-.059-.176-.118-.351-.118-.934-.059-2.044 0-2.044-1.296 0-.59.35-1.238 1.402-1.238h1.927v1.002h-1.81c-.176 0-.293 0-.41.059-.116.06-.116.177-.116.295 0 .177.117.236.233.294.117.06.234.06.35.06h.526c.526 0 .876.117 1.11.353.175.177.292.471.292.884 0 .883-.526 1.296-1.518 1.296zm5.022-.413c-.233.236-.642.413-1.227.413h-1.868v-.884H40.6c.176 0 .293 0 .41-.118a.453.453 0 0 0 .116-.294.453.453 0 0 0-.117-.295c-.058-.059-.175-.118-.35-.118-.934-.059-2.044 0-2.044-1.296 0-.56.318-1.066 1.1-1.216.094-.013.193-.022.302-.022h1.927v1.002h-1.811c-.175 0-.291 0-.408.059a.451.451 0 0 0-.117.295c0 .177.058.236.234.294.116.06.233.06.35.06h.525c.256 0 .449.03.625.094.162.059.697.3.817.931.01.066.018.135.018.212 0 .353-.117.648-.35.883z"/></g></g></svg>