<svg width="30" height="30" viewBox="0 0 30 30" fill="none" xmlns="http://www.w3.org/2000/svg">
<path fill-rule="evenodd" clip-rule="evenodd" d="M4.39574 4.39578C10.2563 -1.46482 19.7428 -1.4657 25.6042 4.39578C31.4648 10.2564 31.4657 19.7428 25.6042 25.6042C19.7436 31.4648 10.2572 31.4657 4.39574 25.6042C-1.46481 19.7437 -1.46569 10.2573 4.39574 4.39578ZM15 27.533C21.9108 27.533 27.5331 21.9107 27.5331 15C27.5331 8.08924 21.9108 2.46696 15 2.46696C8.08926 2.46696 2.46698 8.08929 2.46698 15C2.46698 21.9108 8.08926 27.533 15 27.533ZM12.5 9.44434C13.2671 9.44434 13.8889 9.99033 13.8889 10.6638V19.3359C13.8889 20.0095 13.2671 20.5554 12.5 20.5554C11.733 20.5554 11.1111 20.0095 11.1111 19.3359V10.6638C11.1111 9.99033 11.7329 9.44434 12.5 9.44434ZM18.8889 10.6638C18.8889 9.99033 18.2671 9.44434 17.5 9.44434C16.7329 9.44434 16.1111 9.99033 16.1111 10.6638V19.3359C16.1111 20.0095 16.733 20.5554 17.5 20.5554C18.2671 20.5554 18.8889 20.0095 18.8889 19.3359V10.6638Z" fill="#5B45A7"/>
</svg>
