<svg width="32" height="32" viewBox="0 0 32 32" fill="none" xmlns="http://www.w3.org/2000/svg">
<path fill-rule="evenodd" clip-rule="evenodd" d="M1 16C1 7.72289 7.72289 1 16 1C24.2771 1 31 7.72289 31 16C31 24.2771 24.2771 31 16 31C7.72289 31 1 24.2771 1 16ZM2.3012 16C2.3012 23.5542 8.44578 29.6988 16 29.6988C23.5542 29.6988 29.6988 23.5542 29.6988 16C29.6988 8.44578 23.5542 2.3012 16 2.3012C8.44578 2.3012 2.3012 8.44578 2.3012 16ZM19.2531 12.7471H23.8073C24.1326 12.7471 24.4218 13.0362 24.4579 13.3977V18.6025C24.4579 18.9639 24.1687 19.2531 23.8073 19.2531H19.2531V23.8073C19.2531 24.1687 18.9639 24.4579 18.6025 24.4579H13.3977C13.0362 24.4579 12.7471 24.1687 12.7471 23.8073V19.2531H8.19284C7.83139 19.2531 7.54224 18.9639 7.54224 18.6025V13.3977C7.54224 13.0362 7.83139 12.7471 8.19284 12.7471H12.7471V8.19284C12.7471 7.83139 13.0362 7.54224 13.3977 7.54224H18.6025C18.9639 7.54224 19.2531 7.83139 19.2531 8.19284V12.7471ZM23.1567 17.9519H23.1928V14.0483H18.6386C18.2772 14.0483 17.988 13.7591 17.988 13.3977V8.84344H14.0483V13.3977C14.0483 13.7591 13.7591 14.0483 13.3977 14.0483H8.84344V17.9519H13.3977C13.7591 17.9519 14.0483 18.241 14.0483 18.6025V23.1567H17.9519V18.6025C17.9519 18.241 18.241 17.9519 18.6025 17.9519H23.1567Z" fill="#5B45A7"/>
<path d="M19.2531 12.7471H18.7531V13.2471H19.2531V12.7471ZM24.4579 13.3977H24.9579V13.3727L24.9554 13.3479L24.4579 13.3977ZM19.2531 19.2531V18.7531H18.7531V19.2531H19.2531ZM12.7471 19.2531H13.2471V18.7531H12.7471V19.2531ZM12.7471 12.7471V13.2471H13.2471V12.7471H12.7471ZM23.1928 17.9519V18.4519H23.6928V17.9519H23.1928ZM23.1928 14.0483H23.6928V13.5483H23.1928V14.0483ZM17.988 8.84344H18.488V8.34344H17.988V8.84344ZM14.0483 8.84344V8.34344H13.5483V8.84344H14.0483ZM8.84344 14.0483V13.5483H8.34344V14.0483H8.84344ZM8.84344 17.9519H8.34344V18.4519H8.84344V17.9519ZM14.0483 23.1567H13.5483V23.6567H14.0483V23.1567ZM17.9519 23.1567V23.6567H18.4519V23.1567H17.9519ZM16 0.5C7.44675 0.5 0.5 7.44675 0.5 16H1.5C1.5 7.99903 7.99903 1.5 16 1.5V0.5ZM31.5 16C31.5 7.44675 24.5533 0.5 16 0.5V1.5C24.001 1.5 30.5 7.99903 30.5 16H31.5ZM16 31.5C24.5533 31.5 31.5 24.5533 31.5 16H30.5C30.5 24.001 24.001 30.5 16 30.5V31.5ZM0.5 16C0.5 24.5533 7.44675 31.5 16 31.5V30.5C7.99903 30.5 1.5 24.001 1.5 16H0.5ZM16 29.1988C8.72193 29.1988 2.8012 23.2781 2.8012 16H1.8012C1.8012 23.8304 8.16964 30.1988 16 30.1988V29.1988ZM29.1988 16C29.1988 23.2781 23.2781 29.1988 16 29.1988V30.1988C23.8304 30.1988 30.1988 23.8304 30.1988 16H29.1988ZM16 2.8012C23.2781 2.8012 29.1988 8.72193 29.1988 16H30.1988C30.1988 8.16964 23.8304 1.8012 16 1.8012V2.8012ZM2.8012 16C2.8012 8.72193 8.72193 2.8012 16 2.8012V1.8012C8.16964 1.8012 1.8012 8.16964 1.8012 16H2.8012ZM23.8073 12.2471H19.2531V13.2471H23.8073V12.2471ZM24.9554 13.3479C24.8983 12.7767 24.433 12.2471 23.8073 12.2471V13.2471C23.8185 13.2471 23.8496 13.2525 23.8875 13.2904C23.9251 13.328 23.954 13.384 23.9604 13.4474L24.9554 13.3479ZM24.9579 18.6025V13.3977H23.9579V18.6025H24.9579ZM23.8073 19.7531C24.4449 19.7531 24.9579 19.2401 24.9579 18.6025H23.9579C23.9579 18.6878 23.8926 18.7531 23.8073 18.7531V19.7531ZM19.2531 19.7531H23.8073V18.7531H19.2531V19.7531ZM19.7531 23.8073V19.2531H18.7531V23.8073H19.7531ZM18.6025 24.9579C19.2401 24.9579 19.7531 24.4449 19.7531 23.8073H18.7531C18.7531 23.8926 18.6878 23.9579 18.6025 23.9579V24.9579ZM13.3977 24.9579H18.6025V23.9579H13.3977V24.9579ZM12.2471 23.8073C12.2471 24.4449 12.7601 24.9579 13.3977 24.9579V23.9579C13.3124 23.9579 13.2471 23.8926 13.2471 23.8073H12.2471ZM12.2471 19.2531V23.8073H13.2471V19.2531H12.2471ZM8.19284 19.7531H12.7471V18.7531H8.19284V19.7531ZM7.04224 18.6025C7.04224 19.2401 7.55525 19.7531 8.19284 19.7531V18.7531C8.10753 18.7531 8.04224 18.6878 8.04224 18.6025H7.04224ZM7.04224 13.3977V18.6025H8.04224V13.3977H7.04224ZM8.19284 12.2471C7.55525 12.2471 7.04224 12.7601 7.04224 13.3977H8.04224C8.04224 13.3124 8.10753 13.2471 8.19284 13.2471V12.2471ZM12.7471 12.2471H8.19284V13.2471H12.7471V12.2471ZM12.2471 8.19284V12.7471H13.2471V8.19284H12.2471ZM13.3977 7.04224C12.7601 7.04224 12.2471 7.55525 12.2471 8.19284H13.2471C13.2471 8.10753 13.3124 8.04224 13.3977 8.04224V7.04224ZM18.6025 7.04224H13.3977V8.04224H18.6025V7.04224ZM19.7531 8.19284C19.7531 7.55525 19.2401 7.04224 18.6025 7.04224V8.04224C18.6878 8.04224 18.7531 8.10753 18.7531 8.19284H19.7531ZM19.7531 12.7471V8.19284H18.7531V12.7471H19.7531ZM23.1928 17.4519H23.1567V18.4519H23.1928V17.4519ZM22.6928 14.0483V17.9519H23.6928V14.0483H22.6928ZM18.6386 14.5483H23.1928V13.5483H18.6386V14.5483ZM17.488 13.3977C17.488 14.0352 18.001 14.5483 18.6386 14.5483V13.5483C18.5533 13.5483 18.488 13.483 18.488 13.3977H17.488ZM17.488 8.84344V13.3977H18.488V8.84344H17.488ZM14.0483 9.34344H17.988V8.34344H14.0483V9.34344ZM14.5483 13.3977V8.84344H13.5483V13.3977H14.5483ZM13.3977 14.5483C14.0352 14.5483 14.5483 14.0352 14.5483 13.3977H13.5483C13.5483 13.483 13.483 13.5483 13.3977 13.5483V14.5483ZM8.84344 14.5483H13.3977V13.5483H8.84344V14.5483ZM9.34344 17.9519V14.0483H8.34344V17.9519H9.34344ZM13.3977 17.4519H8.84344V18.4519H13.3977V17.4519ZM14.5483 18.6025C14.5483 17.9649 14.0352 17.4519 13.3977 17.4519V18.4519C13.483 18.4519 13.5483 18.5172 13.5483 18.6025H14.5483ZM14.5483 23.1567V18.6025H13.5483V23.1567H14.5483ZM17.9519 22.6567H14.0483V23.6567H17.9519V22.6567ZM17.4519 18.6025V23.1567H18.4519V18.6025H17.4519ZM18.6025 17.4519C17.9649 17.4519 17.4519 17.9649 17.4519 18.6025H18.4519C18.4519 18.5172 18.5172 18.4519 18.6025 18.4519V17.4519ZM23.1567 17.4519H18.6025V18.4519H23.1567V17.4519Z" fill="#5B45A7"/>
</svg>
