<svg width="42" height="34" viewBox="0 0 42 34" fill="none" xmlns="http://www.w3.org/2000/svg">
<path d="M19.3105 3.74805C17.4538 4.27279 15.7181 4.99935 14.1035 5.92773C12.5293 6.85612 11.1367 7.94596 9.92578 9.19727C8.75521 10.4082 7.82682 11.7201 7.14062 13.1328C6.45443 14.5456 6.11133 15.9987 6.11133 17.4922C6.11133 18.3802 6.29297 19.1673 6.65625 19.8535C7.01953 20.4993 7.44336 20.8223 7.92773 20.8223C8.45247 20.8223 8.8763 20.7214 9.19922 20.5195C9.5625 20.3177 9.92578 20.0957 10.2891 19.8535C10.6523 19.6113 11.056 19.3893 11.5 19.1875C11.9844 18.9857 12.61 18.8848 13.377 18.8848C14.1842 18.8848 14.931 19.0664 15.6172 19.4297C16.3438 19.7526 16.9694 20.2168 17.4941 20.8223C18.0592 21.4277 18.5033 22.1543 18.8262 23.002C19.1491 23.8496 19.3105 24.7578 19.3105 25.7266C19.3105 26.776 19.0885 27.7448 18.6445 28.6328C18.2005 29.5208 17.5951 30.2878 16.8281 30.9336C16.1016 31.5794 15.2337 32.1042 14.2246 32.5078C13.2559 32.8711 12.2064 33.0527 11.0762 33.0527C9.58268 33.0527 8.1901 32.7298 6.89844 32.084C5.60677 31.3978 4.47656 30.4896 3.50781 29.3594C2.53906 28.1888 1.77214 26.8568 1.20703 25.3633C0.641927 23.8294 0.359375 22.1947 0.359375 20.459C0.359375 17.7142 0.863932 15.1914 1.87305 12.8906C2.92253 10.5898 4.29492 8.5918 5.99023 6.89648C7.72591 5.16081 9.74414 3.78841 12.0449 2.7793C14.3457 1.72982 16.7676 1.12435 19.3105 0.962891V3.74805ZM41.168 3.74805C39.3516 4.27279 37.6361 4.99935 36.0215 5.92773C34.4069 6.85612 33.0143 7.94596 31.8438 9.19727C30.6732 10.4082 29.7448 11.7201 29.0586 13.1328C28.3724 14.5456 28.0293 15.9987 28.0293 17.4922C28.0293 18.3802 28.1908 19.1673 28.5137 19.8535C28.877 20.4993 29.321 20.8223 29.8457 20.8223C30.3704 20.8223 30.7943 20.7214 31.1172 20.5195C31.4805 20.3177 31.8236 20.0957 32.1465 19.8535C32.5098 19.6113 32.9134 19.3893 33.3574 19.1875C33.8418 18.9857 34.4674 18.8848 35.2344 18.8848C36.0417 18.8848 36.7884 19.0664 37.4746 19.4297C38.2012 19.7526 38.8268 20.2168 39.3516 20.8223C39.9167 21.4277 40.3607 22.1543 40.6836 23.002C41.0065 23.8496 41.168 24.7578 41.168 25.7266C41.168 26.776 40.946 27.7448 40.502 28.6328C40.0983 29.5208 39.513 30.2878 38.7461 30.9336C38.0195 31.5794 37.1517 32.1042 36.1426 32.5078C35.1335 32.8711 34.0638 33.0527 32.9336 33.0527C31.4401 33.0527 30.0475 32.7298 28.7559 32.084C27.4642 31.3978 26.334 30.4896 25.3652 29.3594C24.3965 28.1888 23.6296 26.8568 23.0645 25.3633C22.4993 23.8294 22.2168 22.1947 22.2168 20.459C22.2168 17.7142 22.7214 15.1914 23.7305 12.8906C24.7799 10.5898 26.1725 8.5918 27.9082 6.89648C29.6439 5.16081 31.6419 3.78841 33.9023 2.7793C36.2031 1.72982 38.625 1.12435 41.168 0.962891V3.74805Z" fill="#9747FF"/>
</svg>
